<?xml version="1.0" encoding="UTF-8" standalone="no"?>
<!-- Created with Inkscape (http://www.inkscape.org/) -->

<svg
   xmlns:dc="http://purl.org/dc/elements/1.1/"
   xmlns:cc="http://creativecommons.org/ns#"
   xmlns:rdf="http://www.w3.org/1999/02/22-rdf-syntax-ns#"
   xmlns:svg="http://www.w3.org/2000/svg"
   xmlns="http://www.w3.org/2000/svg"
   xmlns:xlink="http://www.w3.org/1999/xlink"
   xmlns:sodipodi="http://sodipodi.sourceforge.net/DTD/sodipodi-0.dtd"
   xmlns:inkscape="http://www.inkscape.org/namespaces/inkscape"
   width="42pc"
   height="22pc"
   viewBox="0 0 177.8 93.133333"
   version="1.1"
   id="svg4908"
   inkscape:version="0.92.4 (5da689c313, 2019-01-14)"
   sodipodi:docname="logoRedice online-market.svg">
  <defs
     id="defs4902">
    <linearGradient
       id="linearGradient1017"
       inkscape:collect="always">
      <stop
         id="stop1013"
         offset="0"
         style="stop-color:#000000;stop-opacity:1;" />
      <stop
         id="stop1015"
         offset="1"
         style="stop-color:#000000;stop-opacity:0;" />
    </linearGradient>
    <filter
       id="filter78"
       style="color-interpolation-filters:sRGB"
       inkscape:menu-tooltip="Matte emboss effect"
       inkscape:menu="Bumps"
       inkscape:label="Basic Diffuse Bump">
      <feColorMatrix
         id="feColorMatrix68"
         in="SourceGraphic"
         type="luminanceToAlpha"
         result="result2" />
      <feDiffuseLighting
         id="feDiffuseLighting72"
         surfaceScale="15"
         result="result1"
         diffuseConstant="0.5"
         in="result2"
         lighting-color="#ffffff">
        <feDistantLight
           id="feDistantLight70"
           elevation="10"
           azimuth="225" />
      </feDiffuseLighting>
      <feComposite
         id="feComposite74"
         in2="SourceGraphic"
         k3="0.8"
         k2="1"
         operator="arithmetic"
         result="result9"
         k1="0"
         k4="0" />
      <feComposite
         id="feComposite76"
         in="result9"
         operator="in"
         result="result7"
         in2="SourceGraphic" />
    </filter>
    <linearGradient
       gradientUnits="userSpaceOnUse"
       y2="412.18594"
       x2="439.24405"
       y1="413.77139"
       x1="69.019409"
       id="linearGradient1019"
       xlink:href="#linearGradient1017"
       inkscape:collect="always" />
    <linearGradient
       inkscape:collect="always"
       xlink:href="#linearGradient1017"
       id="linearGradient5019"
       gradientUnits="userSpaceOnUse"
       x1="69.019409"
       y1="413.77139"
       x2="439.24405"
       y2="412.18594" />
    <linearGradient
       inkscape:collect="always"
       xlink:href="#linearGradient1017"
       id="linearGradient5021"
       gradientUnits="userSpaceOnUse"
       x1="69.019409"
       y1="413.77139"
       x2="439.24405"
       y2="412.18594" />
    <linearGradient
       inkscape:collect="always"
       xlink:href="#linearGradient1017"
       id="linearGradient5023"
       gradientUnits="userSpaceOnUse"
       x1="69.019409"
       y1="413.77139"
       x2="439.24405"
       y2="412.18594" />
    <linearGradient
       inkscape:collect="always"
       xlink:href="#linearGradient1017"
       id="linearGradient5025"
       gradientUnits="userSpaceOnUse"
       x1="69.019409"
       y1="413.77139"
       x2="439.24405"
       y2="412.18594" />
    <linearGradient
       inkscape:collect="always"
       xlink:href="#linearGradient1017"
       id="linearGradient5027"
       gradientUnits="userSpaceOnUse"
       x1="69.019409"
       y1="413.77139"
       x2="439.24405"
       y2="412.18594" />
    <linearGradient
       inkscape:collect="always"
       xlink:href="#linearGradient1017"
       id="linearGradient5029"
       gradientUnits="userSpaceOnUse"
       x1="69.019409"
       y1="413.77139"
       x2="439.24405"
       y2="412.18594" />
    <linearGradient
       inkscape:collect="always"
       xlink:href="#linearGradient1017"
       id="linearGradient5031"
       gradientUnits="userSpaceOnUse"
       x1="69.019409"
       y1="413.77139"
       x2="439.24405"
       y2="412.18594" />
    <linearGradient
       inkscape:collect="always"
       xlink:href="#linearGradient1017"
       id="linearGradient5033"
       gradientUnits="userSpaceOnUse"
       x1="69.019409"
       y1="413.77139"
       x2="439.24405"
       y2="412.18594" />
    <linearGradient
       inkscape:collect="always"
       xlink:href="#linearGradient1017"
       id="linearGradient5035"
       gradientUnits="userSpaceOnUse"
       x1="69.019409"
       y1="413.77139"
       x2="439.24405"
       y2="412.18594" />
    <linearGradient
       inkscape:collect="always"
       xlink:href="#linearGradient1017"
       id="linearGradient5037"
       gradientUnits="userSpaceOnUse"
       x1="69.019409"
       y1="413.77139"
       x2="439.24405"
       y2="412.18594" />
    <linearGradient
       inkscape:collect="always"
       xlink:href="#linearGradient1017"
       id="linearGradient5039"
       gradientUnits="userSpaceOnUse"
       x1="69.019409"
       y1="413.77139"
       x2="439.24405"
       y2="412.18594" />
    <linearGradient
       inkscape:collect="always"
       xlink:href="#linearGradient1017"
       id="linearGradient5041"
       gradientUnits="userSpaceOnUse"
       x1="69.019409"
       y1="413.77139"
       x2="439.24405"
       y2="412.18594" />
    <linearGradient
       inkscape:collect="always"
       xlink:href="#linearGradient1017"
       id="linearGradient5043"
       gradientUnits="userSpaceOnUse"
       x1="69.019409"
       y1="413.77139"
       x2="439.24405"
       y2="412.18594" />
  </defs>
  <sodipodi:namedview
     id="base"
     pagecolor="#ffffff"
     bordercolor="#666666"
     borderopacity="1.0"
     inkscape:pageopacity="0.0"
     inkscape:pageshadow="2"
     inkscape:zoom="0.7"
     inkscape:cx="504.74284"
     inkscape:cy="193.78108"
     inkscape:document-units="mm"
     inkscape:current-layer="layer1"
     showgrid="false"
     units="pc"
     inkscape:window-width="1366"
     inkscape:window-height="705"
     inkscape:window-x="-8"
     inkscape:window-y="-8"
     inkscape:window-maximized="1" />
  <metadata
     id="metadata4905">
    <rdf:RDF>
      <cc:Work
         rdf:about="">
        <dc:format>image/svg+xml</dc:format>
        <dc:type
           rdf:resource="http://purl.org/dc/dcmitype/StillImage" />
        <dc:title></dc:title>
      </cc:Work>
    </rdf:RDF>
  </metadata>
  <g
     inkscape:label="Layer 1"
     inkscape:groupmode="layer"
     id="layer1"
     transform="translate(0,-203.86667)">
    <g
       id="layer1-2"
       inkscape:label="Layer 1"
       transform="translate(-12.996061,188.76573)">
      <g
         id="flowRoot18"
         style="font-style:normal;font-variant:normal;font-weight:normal;font-stretch:normal;font-size:96px;line-height:1.25;font-family:Mistral;-inkscape-font-specification:Mistral;letter-spacing:0px;word-spacing:0px;fill:#000000;fill-opacity:1;stroke:none"
         transform="matrix(0.48874545,0,0,0.29957178,-10.042318,-9.1821491)"
         aria-label="RedIce">
        <path
           sodipodi:nodetypes="scccccccssscccscsccccsccccccccccccccccsccscscccccsssccscscc"
           inkscape:connector-curvature="0"
           id="path34"
           style="font-size:192px;fill:#ff0000"
           d="m 78.246094,267.77178 c 0,1.25 0.875,2.9375 2.625,5.0625 1.8125,2.0625 4.5,4.625 8.0625,7.6875 15.028986,11.66159 31.739896,25.2531 45.843746,34.59375 0,0 2.21875,2.125 2.90625,4.125 2.03155,5.42091 0.0746,8.9318 -3.85934,9.18786 -23.76345,-0.34893 -64.000441,-69.43778 -67.578156,-25.21911 -1.080861,6.32883 -0.03143,13.44336 -3.28125,17.90625 -0.375,0.5625 -0.9375,0.84375 -1.6875,0.84375 -2.4375,0 -4.28125,-0.59375 -5.53125,-1.78125 -1.25,-1.1875 -1.875,-2.96875 -1.875,-5.34375 0,-3.1875 0.1875,-6.53125 0.5625,-10.03125 0.4375,-3.5 1.125,-7.1875 2.0625,-11.0625 0.3125,-1.6875 0.53125,-3.1875 0.65625,-4.5 0.1875,-1.375 0.28125,-2.625 0.28125,-3.75 0,-2.875 -1.25,-5.34375 -3.75,-7.40625 -2.4375,-2.0625 -3.65625,-3.53125 -3.65625,-4.40625 0,-1.375 0.1875,-2.5625 0.5625,-3.5625 0.4375,-1.0625 1.0625,-1.90625 1.875,-2.53125 2.0625,-1.3125 3.96875,-2.5625 5.71875,-3.75 0.4375,-0.25 0.71875,-0.65625 0.84375,-1.21875 0.1875,-0.625 0.28125,-1.46875 0.28125,-2.53125 v -1.96875 -2.0625 c -0.211864,-17.14038 -1.093589,-32.70774 -1.21875,-48.84375 0,-2.25 0.5,-4.40625 1.5,-6.46875 1.0625,-2.0625 2.65625,-4.09375 4.78125,-6.09375 2.0625,-1.75 4.15625,-3.0625 6.28125,-3.9375 2.1875,-0.9375 4.40625,-1.40625 6.65625,-1.40625 14.808702,0.804 33.761446,5.93444 45.937496,15 2,1.5 3.875,3.125 5.625,4.875 2,2.25 3.5,4.46875 4.5,6.65625 1,2.125 1.5,4.25 1.5,6.375 -0.0762,5.27541 -1.30657,9.70679 -3.46875,12.46875 -1.6875,2.0625 -4.125,4.34375 -7.3125,6.84375 -6.72085,4.9656 -14.09267,9.19681 -20.4375,12.84375 -2,1.125 -4.718749,2.53125 -8.156246,4.21875 -6.25,3.0625 -10.6875,5.09375 -13.3125,6.09375 -2.625,0.9375 -3.9375,1.96875 -3.9375,3.09375 z m -9.84375,-45.1875 c 1.1875,-0.875 2.3125,-1.71875 3.375,-2.53125 1.0625,-0.875 2.4375,-1.3125 4.125,-1.3125 0.75,0 2.27829,-0.093 3.34079,1.59447 1.125,1.625 1.06546,3.78053 1.06546,4.59303 0,0.4375 -0.15625,1.4375 -0.46875,3 -2.283183,9.57217 -4.211044,19.28987 -5.90625,28.125 0,0.5625 0.09375,0.96875 0.28125,1.21875 0.25,0.25 0.5625,0.375 0.9375,0.375 12.465386,-5.99476 24.097913,-12.67293 35.156246,-20.15625 2.4375,-1.875 4.25,-3.71875 5.4375,-5.53125 1.1875,-1.8125 1.78125,-3.625 1.78125,-5.4375 0,-2.3125 -1.34375,-4.59375 -4.03125,-6.84375 -2.6875,-2.25 -6.71875,-4.40625 -12.09375,-6.46875 -4.562497,-1.8125 -8.718746,-3.125 -12.468746,-3.9375 -3.75,-0.875 -7.15625,-1.3125 -10.21875,-1.3125 -4,0 -7.03125,0.71875 -9.09375,2.15625 -2,1.375 -3,3.4375 -3,6.1875 0,2.125 0.15625,3.75 0.46875,4.875 0.3125,1.0625 0.75,1.53125 1.3125,1.40625 z" />
        <path
           sodipodi:nodetypes="cccccccccccccccccsccscccc"
           inkscape:connector-curvature="0"
           id="path36"
           style="font-size:192px"
           d="m 131.21484,292.42803 c 0.75,-1.3125 1.71875,-2.625 2.90625,-3.9375 1.1875,-1.375 2.6875,-2.78125 4.5,-4.21875 2.0438,-15.80167 22.75921,-51.97567 34.21875,-38.53125 2.82172,4.01825 3.01478,9.47838 1.78125,13.78125 -1.44233,5.81455 -4.43557,10.40314 -6.75,13.40625 -3.0625,3.9375 -7.1875,8.4375 -12.375,13.5 -0.4375,0.4375 -0.8125,1 -1.125,1.6875 -0.3125,0.625 -0.46875,1.3125 -0.46875,2.0625 1.86924,14.23727 15.58605,8.37344 21,4.40625 3.92384,-3.26204 6.44545,-6.24779 7.42981,-4.29957 0.625,1.4375 4.24744,8.75953 4.62244,9.82203 -3.5625,3.5 -11.646,7.10254 -14.5835,8.91504 -6.73196,4.44317 -20.09171,7.36452 -26.53125,0.375 -0.625,-0.625 -1.25,-1.53125 -1.875,-2.71875 -0.625,-1.25 -1.28125,-2.71875 -1.96875,-4.40625 -0.5625,-1.375 -1.09375,-2.375 -1.59375,-3 -0.5,-0.6875 -1.0625,-1.03125 -1.6875,-1.03125 -0.5,0 -1.0625,0.25 -1.6875,0.75 -0.625,0.4375 -1.3125,1.125 -2.0625,2.0625 -0.25,-0.9375 -0.6875,-2.09375 -1.3125,-3.46875 -0.625,-1.375 -1.4375,-3.09375 -2.4375,-5.15625 z m 31.19622,-36.63589 c -4.34799,1.21248 -15.40601,17.02101 -10.00872,20.32339 3.4305,1.91553 24.41981,-22.5267 10.00872,-20.32339 z" />
        <path
           sodipodi:nodetypes="cccccaaaaaacaaaaaaaaaaaacccssccsccccc"
           inkscape:connector-curvature="0"
           id="path38"
           style="font-size:192px"
           d="m 177.51747,292.31763 c 14.17954,-12.47335 12.31383,-9.92055 16.50987,-13.3896 10.25519,-9.1001 19.44162,-21.84643 29.0625,-26.90625 4.31265,-1.67561 5.38067,-3.88005 8.25,-10.125 5.29798,-14.06616 11.90901,-32.90644 18.84375,-42.75 1.05383,-1.46094 2.26757,-2.67688 3.5625,-3.46875 1.30847,-0.80014 2.73104,-1.37779 4.125,-1.21875 0.85352,0.0974 1.82494,0.33791 2.4375,1.3125 0.59721,0.95017 0.75007,2.49142 0.84375,3.84375 0.17765,2.56437 -0.20302,5.17433 -0.5625,7.6875 -0.33703,2.35621 -0.88078,4.63232 -1.48248,6.84375 -5.65466,20.78272 -16.80953,38.17406 -19.89252,60 -0.24808,1.99117 -0.0609,4.07758 0.0937,6.09375 0.10486,1.36747 0.24138,2.75659 0.5625,4.03125 0.36008,1.42933 0.92254,2.71255 1.5,3.9375 0.8339,1.76893 1.76592,3.43814 2.8125,4.875 0.7449,1.02268 1.52904,2.05398 2.4375,2.625 0.94403,0.59338 1.98834,0.7565 3,0.75 1.20284,-0.008 2.41848,-0.33128 3.5625,-0.9375 1.33222,-0.70595 2.39036,-3.64323 3.75,-3.09375 2.09714,0.84754 4.20509,5.17923 3.75,8.625 -0.16778,1.27036 -1.3917,1.268 -2.0625,1.96875 -1.38035,1.442 -2.59876,3.29415 -4.03125,4.59375 -1.18876,1.07849 -2.4306,2.08553 -3.75,2.625 -1.7342,0.70907 -3.5616,0.98229 -5.34375,0.75 -11.67088,0.29971 -14.64973,-10.20957 -18.84375,-19.3125 -3.17845,-9.57959 -13.82445,11.356 -17.71875,15.84375 -2.05356,2.33359 -4.13181,4.57722 -6.1875,6.84375 -2.81935,3.10852 -5.41254,5.37889 -7.78125,6.84375 -2.38141,1.47271 -4.4375,2.25 -6.1875,2.25 -4.13139,0.082 -9.12178,-2.0661 -9.1875,-9.09375 0,-1.4375 0.54008,-3.42781 1.59375,-6 1.07137,-2.61539 1.59375,-4.5625 1.59375,-5.8125 -0.45634,-4.60274 -5.49542,-6.30169 -5.25982,-10.2354 z m 48.10362,-26.7021 c -6.75044,-4.23179 -34.74857,20.7738 -28.84328,33.66313 2.74967,7.16936 35.65841,-28.71884 28.84328,-33.66313 z" />
        <path
           sodipodi:nodetypes="cssssccccssccccc"
           inkscape:connector-curvature="0"
           id="path40"
           style="font-size:192px"
           d="m 269.96484,290.74053 c 0.15778,-3.00455 0.41026,-7.51567 0.5625,-9 0.10944,-1.06706 0.089,1.15677 0,0 -0.10018,-1.30228 0.15625,-3.5 0.46875,-6.5625 0.3125,-3.0625 0.80024,-7.0562 1.40625,-12 0.58151,-4.7439 1.00646,-8.41624 1.40625,-10.96875 1.31833,-11.18914 2.26174,-9.47242 -2.34375,-13.875 -3.83157,-4.09052 5.55669,-33.48755 7.78125,-38.53125 3.86741,-8.77569 13.23698,-10.44134 17.90625,-10.5 0.875,0 1.5625,0.34375 2.0625,1.03125 0.5,0.6875 0.75,1.65625 0.75,2.90625 0,0.5 -0.25,2.25 -0.75,5.25 -2.61803,18.24322 -7.75288,35.71965 -10.3125,53.8125 -2.91782,19.79572 1.79567,52.40408 -6.84375,65.90625 -1.6007,2.28597 -3.96726,2.99658 -6.09375,3.09375 -6.285,-1.08875 -6.35487,-23.82663 -6,-30.5625 z" />
        <g
           style="fill:#ff0000"
           id="g49">
          <path
             sodipodi:nodetypes="caaaccaaccaaccccaccc"
             inkscape:connector-curvature="0"
             d="m 348.80859,256.33428 c 0.70186,-0.097 1.45455,0.16967 2.0625,0.75 0.44425,0.42407 0.84721,1.09079 1.03125,1.875 0.3767,1.60512 0.30925,3.51322 0,5.15625 -0.31326,1.66435 -0.6538,2.58965 -1.79676,4.323 -6.29866,8.143 -34.89057,-4.04029 -33.92199,33.83325 0.0499,1.29739 0.20643,2.67701 0.65625,3.75 0.46508,1.10939 1.23743,1.8187 1.96875,2.4375 0.78593,0.665 1.67347,0.95491 2.53125,1.3125 4.39757,1.77153 8.92111,0.57848 12.9375,-1.125 2.22327,-0.97023 4.31795,-2.60139 6.46875,-3.9375 2.22449,-1.38189 4.52348,-2.49439 6.65625,-4.21875 0.6622,-0.53539 1.89059,-1.88961 1.89059,-1.88961 43.69998,-46.02128 11.16369,16.80977 -17.09924,23.65192 -4.60922,1.83836 -11.03689,0.47324 -15.7803,0.67109 -3.6667,0.34459 -6.13712,-1.5431 -9.2298,-3.8709 -1.17379,-0.87757 -2.37608,-1.69023 -3.46875,-2.8125 -0.7379,-0.75789 -1.49059,-1.55118 -2.0625,-2.625 -2.03206,-4.78672 -1.6304,-11.96762 -2.15625,-16.78125 -2.16575,-26.52808 38.70962,-38.9459 49.3125,-40.5 z"
             style="font-size:192px;fill:#ff0000"
             id="path42" />
          <path
             sodipodi:nodetypes="cccccacccccccc"
             inkscape:connector-curvature="0"
             d="m 363.99609,284.27178 c 4.70358,-14.63361 10.22984,-31.29887 18.72467,-36.87584 2.60532,-1.84808 8.98514,-6.45852 15.49408,-1.65541 16.38544,13.53259 -21.29564,38.54809 -18.28123,47.90625 6.99924,13.09995 18.1141,2.61941 23.90625,-1.21875 3.68307,-1.35935 4.32168,5.30226 3.65625,8.625 -2.32183,11.59375 -14.19264,10.33417 -21.1875,12 -7.55287,1.75701 -14.74796,-0.541 -18.9375,-10.78125 -3.93102,-8.40859 -2.98349,-5.40609 -7.03125,-1.21875 -0.62666,0 -0.6875,-2.09375 -1.3125,-3.46875 -4.54902,-8.09273 0.6452,-6.7252 4.96873,-13.3125 z m 22.59375,-22.3125 c -3.88676,-1.85378 -13.15752,10.66407 -9,13.3125 4.76471,1.71561 13.31516,-10.80615 9,-13.3125 z"
             style="font-size:192px;fill:#ff0000"
             id="path44" />
        </g>
        <flowRoot
           transform="matrix(0.54135201,0,0,0.88320513,12.89126,-15.742024)"
           style="font-style:normal;font-variant:normal;font-weight:normal;font-stretch:normal;font-size:14.66666698px;line-height:1.25;font-family:'Bernard MT Condensed';-inkscape-font-specification:'Bernard MT Condensed, ';letter-spacing:0px;word-spacing:0px;fill:#000000;fill-opacity:1;stroke:none"
           id="flowRoot36"
           xml:space="preserve"><flowRegion
             id="flowRegion38"><rect
               y="271.43475"
               x="84.357925"
               height="78.318253"
               width="632.8504"
               id="rect40" /></flowRegion><flowPara
             id="flowPara42" /></flowRoot>        <g
           id="flowRoot80"
           style="font-style:normal;font-variant:normal;font-weight:normal;font-stretch:normal;font-size:42.66666794px;line-height:1.25;font-family:'Bernard MT Condensed';-inkscape-font-specification:'Bernard MT Condensed, ';letter-spacing:0px;word-spacing:0px;fill:url(#linearGradient1019);fill-opacity:1;stroke:none"
           transform="matrix(0.54135201,0,0,0.88320513,98.111058,4.9893687)"
           aria-label="ONLINE-MARKET">
          <path
             inkscape:connector-curvature="0"
             id="path88"
             style="fill:url(#linearGradient5019);fill-opacity:1"
             d="m 120.67904,394.3762 q 3.0625,0 5.29166,2.0625 2.25,2.04167 3.66667,5.83334 1.41667,3.79166 1.41667,9.72916 0,7.125 -2.77084,12.04167 -2.75,4.89583 -7.77083,4.89583 -4.77083,0 -7.52083,-4.79166 -2.75,-4.79167 -2.75,-12.375 0,-7.77084 2.8125,-12.58334 2.83333,-4.8125 7.625,-4.8125 z m 1.64583,4.9375 q 0,-2.60416 -1.6875,-2.60416 -0.70833,0 -1.20833,0.64583 -0.5,0.64583 -0.5,1.58333 v 25.14584 q 0,1.27083 0.5,1.9375 0.5,0.64583 1.1875,0.64583 0.77083,0 1.22916,-0.72917 0.47917,-0.72916 0.47917,-1.625 z" />
          <path
             inkscape:connector-curvature="0"
             id="path90"
             style="fill:url(#linearGradient5021);fill-opacity:1"
             d="m 137.9707,409.5012 v 14.70834 q 0,0.91666 1.04167,1.375 0.875,0.39583 0.875,1.125 0,1.52083 -0.0833,1.6875 -0.0625,0.16666 -0.60417,0.16666 h -5.54167 q -0.41666,0 -0.52083,-0.3125 -0.10417,-0.33333 -0.10417,-1.60416 0,-0.58334 0.5625,-0.8125 1.08334,-0.47917 1.08334,-1.08334 v -24.625 q 0,-0.89583 -0.16667,-1.33333 -0.16667,-0.45833 -0.75,-0.75 -0.52083,-0.25 -0.70833,-0.54167 -0.16667,-0.29166 -0.16667,-1.10416 0,-1.45834 0.77083,-1.45834 h 5.79167 l 7,16.22917 v -11.95833 q 0,-1 -1.02083,-1.41667 -0.60417,-0.27083 -0.79167,-0.60417 -0.16667,-0.35416 -0.16667,-1.35416 0,-0.625 0.125,-0.75 0.125,-0.14584 0.47917,-0.14584 h 5.75 q 0.47917,0.0625 0.47917,1.375 0,0.77084 -0.10417,0.97917 -0.0833,0.20833 -0.41667,0.35417 -0.72916,0.29166 -0.91666,0.5625 -0.1875,0.27083 -0.1875,0.75 v 29.60416 h -3.54167 z" />
          <path
             inkscape:connector-curvature="0"
             id="path92"
             style="fill:url(#linearGradient5023);fill-opacity:1"
             d="m 161.8457,426.20954 h 1.1875 q 0.91667,0 1.35417,-0.72917 0.4375,-0.72917 1.14583,-3.375 0.25,-1.02083 0.60417,-1.22917 0.35417,-0.22916 1.20833,-0.22916 0.9375,0 1.20834,0.16666 0.27083,0.14584 0.27083,0.5625 0,0.29167 -0.10417,0.9375 l -0.72916,4.97917 q -0.125,0.77083 -0.33334,1.02083 -0.1875,0.25 -0.79166,0.25 H 153.1582 q -0.875,0 -0.875,-1.08333 0,-0.83333 0.10417,-1.0625 0.125,-0.25 0.5,-0.375 1.1875,-0.375 1.1875,-2.1875 v -24.75 q 0,-0.77083 -0.75,-1.10417 -0.64583,-0.27083 -0.79167,-0.60416 -0.14583,-0.33334 -0.14583,-1.10417 0,-0.91667 0.125,-1.125 0.125,-0.22917 0.66667,-0.22917 h 9.60416 q 0.54167,0 0.72917,0.27084 0.20833,0.25 0.20833,1.39583 0,0.6875 -0.14583,0.9375 -0.125,0.22917 -0.6875,0.41667 -1.04167,0.35416 -1.04167,1.375 z" />
          <path
             inkscape:connector-curvature="0"
             id="path94"
             style="fill:url(#linearGradient5025);fill-opacity:1"
             d="m 169.7207,396.6887 v -1.10416 q 0,-0.64584 0.6875,-0.64584 h 9.97917 q 0.5625,0 0.72917,0.14584 0.16666,0.14583 0.16666,0.875 0,1.10416 -0.125,1.375 -0.10416,0.27083 -0.5,0.33333 -1.29166,0.22917 -1.29166,1.64583 v 25.04167 q 0,0.79167 0.9375,1.25 0.60416,0.29167 0.72916,0.52083 0.125,0.22917 0.125,0.79167 v 0.8125 q 0,0.66667 -0.125,0.75 -0.125,0.0833 -0.64583,0.0833 H 170.2207 q -0.58333,0 -0.58333,-0.45833 0,-1.5 0.10417,-1.83333 0.10416,-0.33334 0.72916,-0.52084 1.125,-0.3125 1.125,-1.1875 v -24.72916 q 0,-0.875 -0.20833,-1.3125 -0.20833,-0.45834 -0.91667,-0.75 -0.52083,-0.22917 -0.64583,-0.39584 -0.10417,-0.1875 -0.10417,-0.6875 z" />
          <path
             inkscape:connector-curvature="0"
             id="path96"
             style="fill:url(#linearGradient5027);fill-opacity:1"
             d="m 187.38737,409.5012 v 14.70834 q 0,0.91666 1.04167,1.375 0.875,0.39583 0.875,1.125 0,1.52083 -0.0833,1.6875 -0.0625,0.16666 -0.60416,0.16666 h -5.54167 q -0.41667,0 -0.52083,-0.3125 -0.10417,-0.33333 -0.10417,-1.60416 0,-0.58334 0.5625,-0.8125 1.08333,-0.47917 1.08333,-1.08334 v -24.625 q 0,-0.89583 -0.16666,-1.33333 -0.16667,-0.45833 -0.75,-0.75 -0.52084,-0.25 -0.70834,-0.54167 -0.16666,-0.29166 -0.16666,-1.10416 0,-1.45834 0.77083,-1.45834 h 5.79167 l 7,16.22917 v -11.95833 q 0,-1 -1.02084,-1.41667 -0.60416,-0.27083 -0.79166,-0.60417 -0.16667,-0.35416 -0.16667,-1.35416 0,-0.625 0.125,-0.75 0.125,-0.14584 0.47917,-0.14584 h 5.75 q 0.47916,0.0625 0.47916,1.375 0,0.77084 -0.10416,0.97917 -0.0833,0.20833 -0.41667,0.35417 -0.72917,0.29166 -0.91667,0.5625 -0.1875,0.27083 -0.1875,0.75 v 29.60416 h -3.54166 z" />
          <path
             inkscape:connector-curvature="0"
             id="path98"
             style="fill:url(#linearGradient5029);fill-opacity:1"
             d="m 211.34571,397.5012 v 11.89584 h 1.41666 q 0.58334,0 0.85417,-0.25 0.27083,-0.25 0.41667,-1.08334 0.25,-1.47916 0.39583,-1.77083 0.16667,-0.29167 0.5,-0.29167 1.64583,0 1.85417,0.14584 0.22916,0.125 0.22916,1.04166 v 6.9375 q 0,0.64584 -0.20833,0.85417 -0.20833,0.1875 -1.29167,0.1875 -0.70833,0 -0.95833,-0.25 -0.22917,-0.27083 -0.45833,-1.47917 -0.22917,-1.10416 -0.45834,-1.35416 -0.20833,-0.25 -0.66666,-0.25 h -1.625 v 14.35416 h 1.10416 q 1.02084,0 1.39584,-0.5625 0.39583,-0.58333 1.25,-3.3125 0.35416,-1.14583 0.72916,-1.5 0.375,-0.35416 1.3125,-0.35416 1.29167,0 1.29167,0.83333 0,0.25 -0.0833,0.72917 l -0.77084,4.72916 q -0.20833,1.29167 -0.35416,1.5625 -0.125,0.25 -0.83334,0.25 h -13.89583 q -0.52083,0 -0.66667,-0.22916 -0.14583,-0.25 -0.14583,-1.39584 0,-0.72916 0.75,-1.0625 1.14583,-0.47916 1.14583,-1.3125 v -25.97916 q -0.0208,-0.39584 -0.9375,-0.79167 -0.625,-0.27083 -0.75,-0.52083 -0.10416,-0.25 -0.10416,-1.20834 0,-0.8125 0.125,-0.95833 0.125,-0.16667 0.72916,-0.16667 h 13.29167 q 0.5,0 0.72917,0.16667 0.22916,0.16667 0.35416,0.79167 l 1.0625,5.375 q 0.0833,0.41666 0.0833,0.5625 0,0.5625 -1,0.5625 -1.125,0 -1.5,-0.25 -0.375,-0.27084 -0.72917,-1.3125 -0.64583,-1.875 -1.125,-2.60417 -0.45833,-0.72917 -1.04167,-0.72917 z" />
          <path
             inkscape:connector-curvature="0"
             id="path100"
             style="fill:url(#linearGradient5031);fill-opacity:1"
             d="m 229.01237,410.23037 h 1.14584 q 0.97916,0 0.97916,0.625 0,0.58333 -0.77083,3.25 -0.75,2.66667 -1.14583,3.1875 -0.375,0.52083 -1.125,0.52083 -0.35417,0 -1.35417,-0.0625 -1.89583,-0.14583 -2.91667,-0.14583 -0.95833,0 -1.41666,0.66667 -0.22917,0.29166 -0.39584,0.375 -0.14583,0.0625 -0.79166,0.0625 -1.04167,0 -1.3125,-0.125 -0.27084,-0.14584 -0.27084,-0.64584 0,-0.66666 0.70834,-3.39583 0.70833,-2.75 1.02083,-3.04167 0.33333,-0.3125 1.54167,-0.3125 0.5625,0 1.5625,0.0833 1.02083,0.0625 1.79166,0.0625 0.875,0 1.20834,-0.125 0.33333,-0.125 0.8125,-0.625 0.3125,-0.35417 0.72916,-0.35417 z" />
          <path
             inkscape:connector-curvature="0"
             id="path102"
             style="fill:url(#linearGradient5033);fill-opacity:1"
             d="m 247.80404,394.9387 h 7.375 q 0.75,0 0.97916,0.22917 0.22917,0.20833 0.22917,1.10417 0,0.8125 -0.16667,1.14583 -0.14583,0.3125 -0.75,0.60417 -0.54166,0.25 -0.6875,0.54166 -0.14583,0.29167 -0.14583,0.95834 v 24.72916 q 0,0.54167 0.125,0.79167 0.125,0.25 0.6875,0.52083 0.77083,0.375 0.77083,1.02084 0,1.625 -0.10416,1.8125 -0.10417,0.16666 -0.72917,0.16666 h -9.29167 q -0.60416,0 -0.60416,-1.02083 0,-0.875 0.0625,-1.29167 0.0625,-0.4375 0.77083,-0.70833 0.79167,-0.3125 0.79167,-1.10417 v -17.54166 l -3.75,14.16666 h -2.29167 l -3.6875,-13.72916 v 17.04166 q 0,0.83334 0.75,1.22917 0.91667,0.45833 0.91667,1.625 0,1.33333 -0.91667,1.33333 h -4.52083 q -0.77084,0 -0.77084,-1.27083 0,-0.89583 0.64584,-1.375 0.47916,-0.39583 0.60416,-0.625 0.125,-0.25 0.125,-0.85417 v -24.0625 q 0,-1 -0.1875,-1.52083 -0.16666,-0.54167 -0.75,-0.875 -0.625,-0.33333 -0.625,-0.6875 l 0.0208,-0.89583 q 0.0208,-0.97917 0.125,-1.20834 0.125,-0.25 0.5625,-0.25 h 7.70833 l 3.33333,12.875 z" />
          <path
             inkscape:connector-curvature="0"
             id="path104"
             style="fill:url(#linearGradient5035);fill-opacity:1"
             d="m 267.34571,421.3762 h -5.20833 l -0.22917,1.91667 q 0,0.0625 -0.0417,0.1875 -0.16666,0.60417 -0.16666,1.08333 0,0.75 0.97916,1.27084 0.52084,0.27083 0.64584,0.5625 0.125,0.29166 0.125,0.95833 0,0.85417 -0.10417,1.04167 -0.0833,0.16666 -0.4375,0.16666 h -5.5 q -0.45834,0 -0.45834,-0.95833 0,-1.14583 0.72917,-1.85417 0.6875,-0.64583 0.79167,-1.375 l 3.85417,-24.52083 q 0.10416,-0.5625 0.10416,-0.97917 0,-0.64583 -0.89583,-1.14583 -0.41667,-0.25 -0.41667,-1.10417 0,-1.14583 0.125,-1.41666 0.125,-0.27084 0.66667,-0.27084 h 7.95833 q 0.72917,0 1.02084,0.6875 0.29166,0.6875 0.58333,3 0.125,0.89584 0.25,1.77084 l 3.41667,22.89583 q 0.25,1.66667 1.22916,2.54167 0.27084,0.22916 0.35417,0.375 0.0833,0.125 0.0833,0.8125 0,1.0625 -0.14583,1.3125 -0.14583,0.22916 -0.625,0.22916 h -9.27083 q -0.41667,0 -0.41667,-0.79166 0,-1 0.10417,-1.25 0.10416,-0.25 0.60416,-0.58334 0.72917,-0.45833 0.72917,-1.16666 0,-0.72917 -0.4375,-3.39584 z m -2.5,-18.58333 -2.3125,16.1875 h 4.58333 z" />
          <path
             inkscape:connector-curvature="0"
             id="path106"
             style="fill:url(#linearGradient5037);fill-opacity:1"
             d="m 287.42905,413.77204 v 10.33333 q 0,0.72917 0.0833,0.97917 0.10417,0.25 0.54167,0.52083 0.5625,0.35417 0.5625,1.1875 0,1.20833 -0.22917,1.5 -0.20833,0.27083 -0.79167,0.27083 h -8.8125 q -0.75,0 -0.75,-1.08333 0,-1.04167 0.0625,-1.33333 0.0625,-0.3125 0.41667,-0.4375 1.14583,-0.45834 1.14583,-1.79167 v -24.39583 q 0,-1.35417 -1,-1.64584 -0.5,-0.16666 -0.625,-0.33333 -0.125,-0.16667 -0.125,-0.97917 0,-1.625 0.875,-1.625 h 11.52084 q 3.4375,0 6.125,2.58334 2.70833,2.58333 2.70833,6.9375 0,6.1875 -6.3125,8.08333 5.77083,1.27083 5.77083,7.3125 v 4.95833 q 0,0.625 0.47917,0.9375 0.5625,0.375 0.5625,1.14584 0,1.20833 -0.14583,1.4375 -0.14584,0.22916 -0.77084,0.22916 h -5.58333 q -1,0 -1.64583,-1.125 -0.64584,-1.14583 -0.64584,-2.8125 v -8.39583 q 0,-2.45833 -2.47916,-2.45833 z m 0,-16.45834 v 14.04167 h 1.35416 q 2.0625,0 2.0625,-4.14583 v -6.70834 q 0,-1.75 -0.66666,-2.45833 -0.64584,-0.72917 -2.04167,-0.72917 z" />
          <path
             inkscape:connector-curvature="0"
             id="path108"
             style="fill:url(#linearGradient5039);fill-opacity:1"
             d="m 315.72071,404.39704 5.39583,19.89583 q 0.27084,1.02083 1.04167,1.39583 0.5,0.25 0.5,1.125 0,0.10417 -0.0625,1.25 -0.0625,0.5 -0.875,0.5 h -8.29167 q -0.45833,0 -0.60416,-0.16666 -0.14584,-0.16667 -0.14584,-0.91667 0,-0.125 0.0417,-1.08333 0.0625,-0.375 0.5,-0.54167 0.66667,-0.22917 0.66667,-0.77083 0,-0.14584 -0.0417,-0.35417 l -2.91667,-10.5 -0.70833,1.5625 v 8.5 q 0,1.0625 0.9375,1.625 0.39583,0.22917 0.39583,1.04167 0,0.95833 -0.16666,1.29166 -0.16667,0.3125 -0.8125,0.3125 h -8.72917 q -0.47917,0 -0.66667,-0.1875 -0.1875,-0.20833 -0.1875,-1.125 0,-0.91666 0.14583,-1.14583 0.14584,-0.25 0.5625,-0.4375 0.77084,-0.3125 0.77084,-1.125 v -25.02083 q 0,-0.9375 -0.75,-1.39584 -0.5,-0.3125 -0.60417,-0.5 -0.10417,-0.20833 -0.10417,-0.83333 0,-1.41667 0.10417,-1.625 0.10417,-0.22917 0.60417,-0.22917 h 9.5 q 0.66667,0 0.66667,0.54167 0,1.6875 -0.0625,1.95833 -0.0625,0.25 -0.60417,0.5625 -1,0.52084 -1,1.33334 v 10.6875 l 4.54167,-10.3125 q 0.375,-0.85417 0.375,-1.29167 0,-0.27083 -0.5,-0.64583 -0.54167,-0.375 -0.66667,-0.64584 -0.10417,-0.27083 -0.10417,-1.375 0,-0.8125 0.60417,-0.8125 h 5.52083 q 0.47917,0 0.58334,0.1875 0.10416,0.1875 0.10416,1.08334 0,0.95833 -0.14583,1.16666 -0.125,0.20834 -0.83333,0.5 -0.54167,0.20834 -0.6875,0.33334 -0.14584,0.125 -0.35417,0.54166 z" />
          <path
             inkscape:connector-curvature="0"
             id="path110"
             style="fill:url(#linearGradient5041);fill-opacity:1"
             d="m 333.09571,397.5012 v 11.89584 h 1.41667 q 0.58333,0 0.85417,-0.25 0.27083,-0.25 0.41666,-1.08334 0.25,-1.47916 0.39584,-1.77083 0.16666,-0.29167 0.5,-0.29167 1.64583,0 1.85416,0.14584 0.22917,0.125 0.22917,1.04166 v 6.9375 q 0,0.64584 -0.20833,0.85417 -0.20834,0.1875 -1.29167,0.1875 -0.70833,0 -0.95833,-0.25 -0.22917,-0.27083 -0.45834,-1.47917 -0.22916,-1.10416 -0.45833,-1.35416 -0.20833,-0.25 -0.66667,-0.25 h -1.625 v 14.35416 h 1.10417 q 1.02083,0 1.39583,-0.5625 0.39584,-0.58333 1.25,-3.3125 0.35417,-1.14583 0.72917,-1.5 0.375,-0.35416 1.3125,-0.35416 1.29167,0 1.29167,0.83333 0,0.25 -0.0833,0.72917 l -0.77083,4.72916 q -0.20833,1.29167 -0.35417,1.5625 -0.125,0.25 -0.83333,0.25 h -13.89583 q -0.52084,0 -0.66667,-0.22916 -0.14583,-0.25 -0.14583,-1.39584 0,-0.72916 0.75,-1.0625 1.14583,-0.47916 1.14583,-1.3125 v -25.97916 q -0.0208,-0.39584 -0.9375,-0.79167 -0.625,-0.27083 -0.75,-0.52083 -0.10417,-0.25 -0.10417,-1.20834 0,-0.8125 0.125,-0.95833 0.125,-0.16667 0.72917,-0.16667 h 13.29167 q 0.5,0 0.72916,0.16667 0.22917,0.16667 0.35417,0.79167 l 1.0625,5.375 q 0.0833,0.41666 0.0833,0.5625 0,0.5625 -1,0.5625 -1.125,0 -1.5,-0.25 -0.375,-0.27084 -0.72916,-1.3125 -0.64584,-1.875 -1.125,-2.60417 -0.45834,-0.72917 -1.04167,-0.72917 z" />
          <path
             inkscape:connector-curvature="0"
             id="path112"
             style="fill:url(#linearGradient5043);fill-opacity:1"
             d="m 346.86655,397.27204 h -0.9375 q -0.45834,0 -0.75,0.625 -0.29167,0.60416 -0.60417,3.3125 -0.14583,1.1875 -0.45833,1.5 -0.3125,0.29166 -1.25,0.29166 -0.89584,0 -1.16667,-0.20833 -0.25,-0.22917 -0.25,-0.875 0,-0.375 0.0208,-0.75 l 0.25,-4.85417 q 0.0417,-0.85416 0.29167,-1.10416 0.25,-0.27084 1.25,-0.27084 h 15.27083 q 0.66667,0 0.8125,0.16667 0.14584,0.16667 0.22917,1.20833 l 0.35417,4.29167 q 0.0417,0.5 0.0417,1.02083 0,0.625 -0.16666,0.95834 -0.14584,0.33333 -0.97917,0.33333 -1.0625,0 -1.375,-0.20833 -0.29167,-0.20834 -0.47917,-1.3125 -0.33333,-1.8125 -0.72916,-2.95834 -0.39584,-1.16666 -0.97917,-1.16666 h -0.625 v 26.75 q 0,1.14583 1,1.58333 0.41667,0.1875 0.54167,0.45833 0.14583,0.25 0.14583,1.08334 0,1.0625 -0.1875,1.25 -0.1875,0.16666 -0.85417,0.16666 h -9.16666 q -0.54167,0 -0.70834,-0.20833 -0.14583,-0.20833 -0.14583,-1.1875 0,-1.16667 0.64583,-1.41667 0.625,-0.25 0.79167,-0.47916 0.16667,-0.25 0.16667,-0.83334 z" />
        </g>
        <path
           sodipodi:nodetypes="cccccccccccccccccccccccccc"
           inkscape:connector-curvature="0"
           id="path22391"
           d="m 283.56206,180.93828 c 1.29389,-5.11504 13.0753,-16.83078 13.75827,-17.72787 -0.007,-0.2345 -4.23316,0.0173 -9.39168,0.55943 -9.93574,1.04432 -23.43139,1.23269 -35.28577,0.49309 -11.65446,-0.7271 -16.52372,-0.31985 -17.64728,-3.26148 -0.48318,-1.25459 -0.2145,-1.86116 1.30034,-6.00513 15.40344,-35.3032 102.26288,-105.436311 82.25652,-25.81501 -2.59053,9.47827 -5.23887,15.44226 -8.52409,22.63979 l 2.27087,0.17852 c 2.30477,0.18143 11.63453,-0.18581 38.31999,-1.50759 l 14.80835,-0.73344 -4.00128,5.04985 -4.00129,5.04983 -15.00532,0.44786 c -8.2529,0.2465 -20.40771,0.68189 -27.01067,0.96803 l -10.78732,0.52011 c -3.20016,3.94957 -7.49732,8.26995 -10.92148,11.69227 -3.65905,3.60764 -11.10213,9.07841 -10.13811,7.4517 z m 20.85666,-32.82774 c 2.0195,-6.35629 3.74974,-18.8271 3.36546,-24.25683 -0.64169,-9.06768 -5.05936,-14.2847 -12.58522,-14.86261 -15.02176,-0.61614 -52.8463,35.54163 -45.88314,42.78117 5.3418,4.37417 21.16136,2.96414 43.01812,1.44269 l 10.69962,-0.74484 z"
           style="opacity:1;fill:#000000;fill-opacity:1;fill-rule:nonzero;stroke:#000000;stroke-width:0.8736366;stroke-linecap:square;stroke-linejoin:round;stroke-miterlimit:4;stroke-dasharray:none;stroke-opacity:1;paint-order:normal" />
      </g>
      <flowRoot
         style="font-style:normal;font-variant:normal;font-weight:normal;font-stretch:normal;font-size:14.66666698px;line-height:1.25;font-family:'Bernard MT Condensed';-inkscape-font-specification:'Bernard MT Condensed, ';letter-spacing:0px;word-spacing:0px;fill:#000000;fill-opacity:1;stroke:none"
         id="flowRoot44"
         xml:space="preserve"><flowRegion
           id="flowRegion46"><rect
             y="348.4978"
             x="103.0611"
             height="16.407467"
             width="15.126747"
             id="rect48" /></flowRegion><flowPara
           id="flowPara50" /></flowRoot>      <flowRoot
         style="font-style:normal;font-variant:normal;font-weight:normal;font-stretch:normal;font-size:14.66666698px;line-height:1.25;font-family:'Bernard MT Condensed';-inkscape-font-specification:'Bernard MT Condensed, ';letter-spacing:0px;word-spacing:0px;fill:#000000;fill-opacity:1;stroke:none"
         id="flowRoot52"
         xml:space="preserve"><flowRegion
           id="flowRegion54"><rect
             y="160.85446"
             x="65.659912"
             height="267.69043"
             width="676.80219"
             id="rect56" /></flowRegion><flowPara
           id="flowPara58" /></flowRoot>    </g>
  </g>
</svg>
