<?xml version="1.0" encoding="UTF-8" standalone="no"?>
<!-- Created with Inkscape (http://www.inkscape.org/) -->

<svg
   xmlns:dc="http://purl.org/dc/elements/1.1/"
   xmlns:cc="http://creativecommons.org/ns#"
   xmlns:rdf="http://www.w3.org/1999/02/22-rdf-syntax-ns#"
   xmlns:svg="http://www.w3.org/2000/svg"
   xmlns="http://www.w3.org/2000/svg"
   xmlns:sodipodi="http://sodipodi.sourceforge.net/DTD/sodipodi-0.dtd"
   xmlns:inkscape="http://www.inkscape.org/namespaces/inkscape"
   width="210mm"
   height="297mm"
   viewBox="0 0 210 297"
   version="1.1"
   id="svg22342"
   inkscape:version="0.92.4 (5da689c313, 2019-01-14)"
   sodipodi:docname="redicelogo.svg">
  <defs
     id="defs22336" />
  <sodipodi:namedview
     id="base"
     pagecolor="#ffffff"
     bordercolor="#666666"
     borderopacity="1.0"
     inkscape:pageopacity="0.0"
     inkscape:pageshadow="2"
     inkscape:zoom="1.4"
     inkscape:cx="407.21462"
     inkscape:cy="614.04893"
     inkscape:document-units="mm"
     inkscape:current-layer="layer1"
     showgrid="false"
     inkscape:window-width="1366"
     inkscape:window-height="705"
     inkscape:window-x="-8"
     inkscape:window-y="-8"
     inkscape:window-maximized="1" />
  <metadata
     id="metadata22339">
    <rdf:RDF>
      <cc:Work
         rdf:about="">
        <dc:format>image/svg+xml</dc:format>
        <dc:type
           rdf:resource="http://purl.org/dc/dcmitype/StillImage" />
        <dc:title></dc:title>
      </cc:Work>
    </rdf:RDF>
  </metadata>
  <g
     inkscape:label="Layer 1"
     inkscape:groupmode="layer"
     id="layer1">
    <flowRoot
       xml:space="preserve"
       id="flowRoot15280"
       style="font-style:normal;font-variant:normal;font-weight:normal;font-stretch:normal;font-size:85.33333588px;line-height:1.25;font-family:'Bernard MT Condensed';-inkscape-font-specification:'Bernard MT Condensed, ';letter-spacing:0px;word-spacing:0px;fill:#000000;fill-opacity:1;stroke:none;stroke-opacity:1;paint-order:markers stroke fill"
       transform="matrix(0.6792568,0,0,0.31121218,-36.897775,42.405362)"><flowRegion
         id="flowRegion15276"
         style="font-size:85.33333588px;fill:#000000;fill-opacity:1;stroke:none;stroke-opacity:1;paint-order:markers stroke fill"><rect
           id="rect15274"
           width="506"
           height="168"
           x="131"
           y="224.51968"
           style="font-size:85.33333588px;fill:#000000;fill-opacity:1;stroke:none;stroke-opacity:1;paint-order:markers stroke fill" /></flowRegion><flowPara
         id="flowPara15278"
         style="font-style:normal;font-variant:normal;font-weight:normal;font-stretch:normal;font-size:85.33333588px;font-family:Mistral;-inkscape-font-specification:Mistral;fill:#000000;fill-opacity:1;stroke:none;stroke-opacity:1;paint-order:markers stroke fill">RedIce</flowPara></flowRoot>    <path
       inkscape:connector-curvature="0"
       d="m 126.30501,117.33125 c 0.67556,-0.10232 1.33597,-0.39777 1.90642,-0.76713 -5.63336,3.47445 -2.75877,1.63046 -1.55304,0.68254 0.82736,-0.55589 1.54897,-1.24438 2.24401,-1.95414 0.77349,-0.81841 1.35651,-1.785 1.84324,-2.79429 0.3445,-0.94864 0.60863,-1.93241 0.84171,-2.91509 0.31792,-1.25615 -0.10186,-2.12947 -0.91577,-3.06739 -1.0892,-0.93177 -2.51366,-1.04255 -3.8876,-1.08152 -0.31031,0.0375 -0.62404,0.0532 -0.93094,0.11248 -1.44113,0.27842 -2.82243,0.87131 -4.15902,1.45493 -1.71984,0.75096 -2.04005,0.93536 -3.74532,1.77905 -0.41306,0.22372 -3.21031,1.72554 -3.64056,2.00976 -0.44633,0.29485 0.92538,-0.98128 1.41287,-0.76104 0.45861,0.20719 -0.84492,0.54706 -1.26149,0.82942 -0.91886,0.62283 -0.93538,0.65272 -1.73287,1.26835 -0.0841,-0.17968 -0.53537,0.48993 -0.34387,0.63648 0.21929,0.1678 1.61887,0.50563 1.64087,0.51029 1.23597,0.26159 2.0625,0.31839 3.33717,0.45954 2.80169,0.25213 5.61588,0.2789 8.42659,0.30755 4.21808,0.0543 8.4353,0.10256 12.65166,0.2391 3.63717,0.14017 7.27595,0.21354 10.91544,0.25078 0,0 -2.7308,1.97364 -2.7308,1.97364 v 0 c -3.59564,-0.14498 -7.1922,-0.26178 -10.78993,-0.34177 -4.33834,-0.0829 -8.67441,-0.0361 -13.01271,0.0286 -2.77159,-0.0302 -5.53743,-0.19614 -8.29847,-0.44021 -1.16159,-0.11189 -2.34871,-0.19958 -3.49974,-0.40829 -0.42516,-0.0771 -0.85644,-0.14749 -1.26172,-0.29731 -0.37992,-0.14044 -1.07655,-0.42583 -0.91288,-1.01835 0.06,-0.21717 0.28486,-0.34914 0.4273,-0.52371 3.52141,-2.67481 7.44495,-4.75637 11.33064,-6.84627 1.64414,-0.80856 2.15819,-1.08449 3.82372,-1.81351 1.41154,-0.61785 2.87279,-1.25235 4.40408,-1.51077 0.32647,-0.0551 0.65952,-0.0591 0.98928,-0.0887 1.48382,0.0744 2.97932,0.24098 4.10883,1.30805 0.81595,0.96598 1.39912,2.06608 1.11118,3.36544 -0.21682,1.01085 -0.52371,2.00357 -0.81873,2.99285 -0.46168,1.0514 -1.0499,2.0489 -1.80855,2.91569 -0.65911,0.71679 -1.3474,1.43882 -2.15739,1.98512 -1.6325,1.20842 -2.98263,2.43238 -5.05056,3.18202 -0.64608,0.32247 -1.31587,0.5929 -2.03309,0.70766 0,0 3.13004,-2.36989 3.13004,-2.36989 z"
       id="path15282"
       style="opacity:1;fill:#000000;fill-opacity:1;stroke:none;stroke-width:0.426;stroke-linecap:round;stroke-linejoin:bevel;stroke-miterlimit:4;stroke-dasharray:none;stroke-opacity:1;paint-order:normal" />
    <path
       style="opacity:1;fill:#ff0000;fill-opacity:1;fill-rule:nonzero;stroke:#ff0000;stroke-width:0.81321257;stroke-linecap:square;stroke-linejoin:round;stroke-miterlimit:4;stroke-dasharray:none;stroke-opacity:1;paint-order:normal"
       d="m 297.96653,528.3131 c -0.83338,-0.25402 -7.42462,-1.74313 -14.64721,-3.30913 -7.22259,-1.566 -15.40483,-3.62441 -18.18275,-4.57424 -2.77792,-0.94983 -7.3236,-2.40433 -10.10152,-3.23223 -2.77792,-0.82789 -10.27831,-3.21483 -16.66752,-5.30431 -6.38922,-2.08947 -12.29479,-3.84247 -13.12351,-3.89556 -1.3573,-0.0869 -1.66806,0.20407 -3.133,2.93394 -0.89443,1.66676 -2.47551,5.30331 -3.5135,8.08123 -1.03799,2.77791 -2.12827,5.2331 -2.42284,5.45595 -1.00873,0.76315 -6.88747,0.0169 -8.29871,-1.05349 -1.17555,-0.89159 -1.31762,-1.32448 -1.23584,-3.76557 0.0598,-1.78402 0.72871,-4.38655 1.89404,-7.36876 0.99089,-2.53583 1.80163,-5.25773 1.80163,-6.04867 0,-1.80273 -1.40494,-3.10521 -5.17704,-4.79949 -2.15314,-0.96711 -2.90418,-1.56955 -2.90418,-2.32957 0,-1.22778 1.46154,-2.02993 6.38004,-3.50162 l 3.60213,-1.07781 0.35495,-3.78781 c 0.61777,-6.59253 0.45729,-15.33499 -0.2982,-16.2453 -0.44434,-0.5354 -0.7135,-2.51369 -0.78451,-5.76617 -0.0944,-4.32289 0.0231,-5.11796 0.92589,-6.26567 1.48509,-1.88799 6.31997,-4.16698 11.39967,-5.37341 3.8985,-0.92589 5.49768,-1.01506 14.26017,-0.79513 12.88304,0.32334 20.86005,1.34913 36.50777,4.69467 14.7144,3.14599 23.61945,7.78229 23.61469,12.29468 -0.003,2.96411 -1.5382,4.80559 -5.65769,6.78698 -4.618,2.22117 -14.55786,5.544 -19.7221,6.59296 -2.15376,0.43748 -4.76753,1.13086 -5.80838,1.54085 -2.35089,0.92601 -13.99897,3.70191 -24.36833,5.80732 -4.30578,0.87424 -8.13342,1.88652 -8.50587,2.2495 -1.52315,1.48441 3.0764,3.99354 16.19379,8.83398 19.64004,7.24737 26.59672,9.69912 37.85103,13.33994 10.37132,3.35517 12.12415,4.07166 13.25825,5.41946 1.30499,1.55089 1.57891,2.70439 1.0003,4.21224 -0.3384,0.88185 -2.0979,0.97988 -4.49165,0.25024 z m -56.03155,-39.29216 c 5.81608,-1.35586 11.48382,-2.62627 12.59499,-2.82312 1.11117,-0.19685 2.24759,-0.53904 2.52538,-0.76042 0.27779,-0.22137 3.60307,-1.33388 7.3895,-2.47225 8.39702,-2.5245 11.38015,-3.76719 13.19236,-5.49558 1.68625,-1.60825 1.75088,-2.64226 0.25254,-4.04023 -5.50861,-5.13956 -43.33775,-10.22099 -53.57088,-7.19594 -1.05976,0.31327 -2.36665,1.0094 -2.90419,1.54695 -1.13944,1.13944 -1.27512,3.40753 -0.28485,4.7618 0.67482,0.92288 0.78765,0.91885 4.41941,-0.1576 2.0498,-0.60757 4.41283,-1.10394 5.25117,-1.10306 1.55756,0.002 5.29428,2.16243 5.29428,3.06147 0,0.27395 -0.94108,2.36813 -2.09128,4.65375 -2.37182,4.71318 -4.97547,10.91524 -4.97806,11.85808 -0.003,1.01747 1.74156,0.76968 12.90963,-1.83385 z"
       id="path22383"
       inkscape:connector-curvature="0"
       transform="scale(0.26458333)" />
    <path
       style="opacity:1;fill:#000000;fill-opacity:1;fill-rule:nonzero;stroke:#000000;stroke-width:0.81321257;stroke-linecap:square;stroke-linejoin:round;stroke-miterlimit:4;stroke-dasharray:none;stroke-opacity:1;paint-order:normal"
       d="m 356.80792,525.29192 c -3.94553,-0.35381 -6.43451,-1.53878 -6.86909,-3.27029 -0.24448,-0.97409 0.10315,-1.80617 1.50791,-3.60924 2.01941,-2.592 2.25103,-3.72908 0.97107,-4.76732 -0.47001,-0.38125 -0.70146,-0.43752 -0.51432,-0.12504 0.46761,0.78083 -8.45295,4.15768 -13.27832,5.02647 -13.45591,2.42268 -22.12203,2.32441 -27.27412,-0.30929 -0.97227,-0.49701 -2.56326,-1.74586 -3.53553,-2.77522 -2.55546,-2.7055 -4.22361,-3.31634 -6.87637,-2.51797 -2.1245,0.63938 -2.13701,0.6354 -3.99884,-1.27129 -1.02722,-1.05196 -1.73301,-2.13054 -1.56843,-2.39684 0.16458,-0.2663 1.99487,-1.24721 4.06732,-2.17981 3.56348,-1.60357 3.79687,-1.80999 4.29834,-3.80151 1.17724,-4.67523 7.1047,-10.24702 15.44219,-14.51561 7.03874,-3.60365 10.56994,-4.50957 16.69905,-4.28408 5.26496,0.1937 6.87128,0.94487 8.39093,3.92391 0.83265,1.6323 0.82129,1.69972 -0.70417,4.17891 -2.07833,3.37772 -4.65139,5.17933 -14.68982,10.28557 -4.66772,2.37432 -8.61337,4.64687 -8.7681,5.0501 -0.51269,1.33604 1.1772,3.07155 3.70566,3.8057 5.95694,1.7296 21.31105,0.13169 25.84199,-2.68939 3.06253,-1.90683 5.70758,-2.94481 9.42549,-3.69879 1.96766,-0.39905 5.55136,-1.72814 8.08122,-2.99712 12.51318,-6.2766 28.55479,-12.87938 34.34519,-14.1366 3.7708,-0.81872 5.80837,-1.833 5.80837,-2.89135 0,-0.24635 0.47718,-0.9498 1.06039,-1.56321 0.58322,-0.61342 1.96264,-2.43285 3.06537,-4.04319 3.19858,-4.67091 16.91303,-17.65533 20.6752,-19.57465 1.24114,-0.63319 3.53806,-1.22586 5.29848,-1.36717 2.66903,-0.21424 3.2553,-0.10171 4.15442,0.7974 1.42162,1.42163 1.00979,4.02783 -1.22365,7.74361 -0.94351,1.56972 -1.71548,3.15826 -1.71548,3.53008 0,0.37182 -0.5513,1.2467 -1.22511,1.94418 -3.12095,3.23056 -3.82565,4.15707 -3.82565,5.02975 0,0.52919 -2.09064,2.91636 -4.79823,5.47882 -2.63902,2.49756 -4.79822,4.81671 -4.79822,5.15367 0,0.33695 -1.50428,3.10932 -3.34285,6.16083 -3.16517,5.25329 -3.33004,5.6815 -3.10186,8.05628 0.27295,2.84056 1.98537,5.03238 5.91225,7.5674 1.93687,1.25036 2.74008,1.44957 5.84467,1.44957 1.99486,0 4.67107,-0.36522 6.00381,-0.81933 l 2.40459,-0.81932 1.99105,1.94421 1.99106,1.94422 -4.32417,2.17285 c -5.39027,2.70855 -9.70661,3.37832 -17.19752,2.66855 -8.52627,-0.80787 -12.33437,-2.73649 -15.65598,-7.929 -2.4856,-3.88562 -3.39467,-4.16711 -7.26159,-2.24854 -1.72633,0.85652 -4.03792,2.32695 -5.13687,3.26761 -2.39091,2.04653 -18.58888,10.40994 -23.062,11.90748 -4.11881,1.37891 -8.16494,1.8794 -12.23973,1.514 z m 17.58861,-10.85884 c 7.48171,-2.50228 23.11471,-11.85439 26.32392,-15.74772 1.45098,-1.76029 1.90902,-3.13064 1.26252,-3.77714 -0.41484,-0.41484 -9.8066,3.52206 -11.5809,4.85455 -0.837,0.62858 -3.68101,2.35281 -6.32004,3.83162 -7.2787,4.07871 -15.54614,10.58445 -14.86048,11.69388 0.40356,0.65297 0.92166,0.56735 5.17498,-0.85519 z m -51.9338,-14.08522 c 0.41669,-0.36081 1.83282,-1.12388 3.14697,-1.6957 2.98766,-1.30001 5.04063,-3.27064 4.60096,-4.41641 -0.56415,-1.47014 -3.9529,-0.57984 -7.80107,2.0495 -3.33141,2.27625 -4.41837,3.69151 -3.71243,4.83374 0.40075,0.64844 2.66062,0.18565 3.76557,-0.77113 z"
       id="path22385"
       inkscape:connector-curvature="0"
       transform="scale(0.26458333)" />
    <path
       style="opacity:1;fill:#000000;fill-opacity:1;fill-rule:nonzero;stroke:#000000;stroke-width:0.81321257;stroke-linecap:square;stroke-linejoin:round;stroke-miterlimit:4;stroke-dasharray:none;stroke-opacity:1;paint-order:normal"
       d="m 455.41664,522.57653 c -1.69651,-1.56428 -1.82115,-1.84647 -1.23692,-2.80045 0.55538,-0.90688 0.50039,-1.27055 -0.37881,-2.50528 -1.23216,-1.7304 -1.42938,-7.17379 -0.35379,-9.76471 0.37109,-0.8939 0.57746,-2.44373 0.4586,-3.44406 -0.21156,-1.78051 2.83888,-14.60118 3.98252,-16.73809 0.38759,-0.72422 0.36707,-1.61797 -0.0733,-3.19074 -0.47429,-1.69399 -0.93914,-2.29887 -2.06951,-2.69292 -1.72076,-0.59986 -1.79503,-1.28353 -0.63927,-5.88462 0.57165,-2.27576 1.37794,-3.90666 2.67318,-5.4071 1.02005,-1.18166 2.83511,-3.81993 4.03347,-5.86284 1.90236,-3.24306 2.51035,-3.86614 4.79156,-4.91051 1.437,-0.65789 4.25777,-1.42946 6.26836,-1.71462 2.0106,-0.28515 4.61768,-0.74045 5.79351,-1.01178 2.43259,-0.56132 5.96336,-0.66577 7.14733,-0.21144 1.18099,0.45319 0.98924,1.81354 -0.90412,6.41428 -0.93668,2.27606 -1.87108,4.7065 -2.07643,5.40098 -0.20536,0.69448 -1.84336,4.29563 -3.63999,8.00256 -4.58382,9.45765 -8.91342,22.53792 -8.85868,26.76317 0.0228,1.75916 -0.28277,4.1174 -0.67904,5.24053 -1.07666,3.05159 -0.92596,7.61345 0.33303,10.08129 1.33011,2.60722 1.02837,2.94575 -4.17302,4.68184 -5.55466,1.85399 -8.01935,1.7484 -10.3987,-0.44549 z"
       id="path22387"
       inkscape:connector-curvature="0"
       transform="scale(0.26458333)" />
    <path
       style="opacity:1;fill:#ff0000;fill-opacity:1;fill-rule:nonzero;stroke:#ff0000;stroke-width:0.81321257;stroke-linecap:square;stroke-linejoin:round;stroke-miterlimit:4;stroke-dasharray:none;stroke-opacity:1;paint-order:normal"
       d="m 496.0964,523.55281 c -6.2224,-2.07294 -8.47373,-3.63537 -8.47373,-5.88081 0,-0.82694 0.24916,-1.96909 0.55369,-2.5381 0.4759,-0.88923 0.26092,-1.33287 -1.53024,-3.15793 -1.96921,-2.00648 -2.03444,-2.16677 -1.18503,-2.91193 1.40612,-1.23355 3.61191,-2.22432 7.71742,-3.4664 2.08344,-0.63033 7.12893,-2.46207 11.2122,-4.07054 4.08327,-1.60847 9.76538,-3.62314 12.62691,-4.47705 2.86153,-0.8539 7.25696,-2.21825 9.76764,-3.03189 7.73609,-2.50705 16.2857,-3.67218 18.44931,-2.51425 1.29104,0.69094 1.27141,3.00718 -0.0396,4.67387 -1.12767,1.43361 -3.36664,2.27575 -10.85273,4.08205 -4.54664,1.09704 -23.57326,7.83063 -26.38501,9.33775 -1.52442,0.8171 -2.7509,3.32283 -2.56021,5.23056 0.21921,2.19313 2.05763,3.3591 6.51758,4.13358 5.3218,0.92415 12.42225,-0.0653 23.69032,-3.30124 6.93628,-1.99196 10.5374,-3.37203 16.73003,-6.41154 l 7.8912,-3.8732 0.87694,-2.74606 c 1.33356,-4.17597 6.95877,-9.49981 13.97758,-13.22875 7.95945,-4.22867 9.73735,-4.73332 16.67555,-4.73332 6.56015,0 7.78297,0.47281 9.70305,3.75171 l 0.95205,1.62582 -1.9622,2.82934 c -2.46781,3.55837 -5.52632,5.66337 -15.15543,10.43059 -4.20056,2.07964 -7.78545,4.167 -7.96641,4.63858 -0.54789,1.42777 0.96866,3.04016 3.56982,3.79541 3.85424,1.11909 13.054,0.8857 19.30996,-0.48986 l 5.25567,-1.15563 1.97935,1.97934 1.97933,1.97934 -4.91187,1.88007 c -8.04577,3.07961 -18.14089,4.67336 -26.77846,4.22759 -6.47762,-0.3343 -9.6389,-1.53261 -13.12459,-4.975 -2.76827,-2.73388 -4.40781,-3.20042 -7.28329,-2.0725 -1.09476,0.42942 -1.51459,0.25333 -3.15673,-1.32408 -2.26875,-2.17933 -2.49771,-1.83199 -0.38131,0.57845 l 1.51272,1.7229 -4.92199,1.83194 c -2.70709,1.00756 -6.62662,2.26362 -8.71006,2.79125 -2.08344,0.52762 -5.53751,1.65614 -7.67571,2.50783 -6.61249,2.63386 -12.6388,3.65193 -23.13394,3.9082 l -9.34391,0.22815 z m 85.1797,-24.03874 c 4.67005,-2.37417 6.63726,-4.0298 6.18587,-5.20611 -0.7509,-1.95681 -5.75406,-0.19226 -9.77389,3.44713 -1.66747,1.50965 -2.2642,2.38514 -2.03422,2.98446 0.46798,1.21952 1.0717,1.08792 5.62224,-1.22548 z"
       id="path22389"
       inkscape:connector-curvature="0"
       transform="scale(0.26458333)" />
    <path
       style="opacity:1;fill:#000000;fill-opacity:1;fill-rule:nonzero;stroke:#000000;stroke-width:0.81321257;stroke-linecap:square;stroke-linejoin:round;stroke-miterlimit:4;stroke-dasharray:none;stroke-opacity:1;paint-order:normal"
       d="m 467.46171,451.37945 c 1.16597,-1.13944 10.33583,-7.87556 10.72098,-7.87556 0.60378,0 5.90437,-4.02246 5.90462,-4.48084 10e-5,-0.17456 -4.92631,-0.23735 -10.94757,-0.13953 -11.59748,0.1884 -27.3075,-0.4691 -41.07546,-1.71911 -13.53577,-1.22893 -18.99686,-2.5184 -20.20191,-4.77006 -0.51824,-0.96835 -0.3462,-1.32091 1.50294,-3.07996 6.40607,-6.09395 36.73203,-23.69968 54.71802,-31.76654 14.2618,-6.39653 20.02778,-7.77791 27.62056,-6.61717 6.9396,1.06088 10.92555,3.87617 13.52408,9.55211 1.56681,3.42237 1.38324,6.6153 -0.8111,14.10773 -1.62641,5.55328 -3.92115,10.11212 -7.13948,14.18361 l -2.00706,2.53911 2.6362,0.26689 c 2.67547,0.27086 13.54431,0.54959 44.64132,1.14481 l 17.2564,0.3303 -4.83151,3.51492 -4.8315,3.51491 -17.47565,-0.55414 c -9.61161,-0.30478 -23.77001,-0.69953 -31.46312,-0.87722 l -13.98746,-0.32309 -4.47176,3.28218 c -2.45947,1.8052 -5.71105,3.97878 -7.22574,4.83019 -4.38312,2.46375 -13.23409,6.08793 -12.0558,4.93646 z m 25.41037,-23.15411 c 2.57094,-4.60257 5.01796,-13.76452 4.75967,-17.82084 -0.43133,-6.77403 -5.39023,-10.9107 -14.12718,-11.78478 -6.82496,-0.68279 -10.78413,0.1876 -21.75098,4.78179 -8.20611,3.43767 -24.63855,11.82997 -24.63855,12.58329 0,0.30182 -1.0796,1.07315 -2.39911,1.71408 -1.31951,0.64092 -4.17316,2.41537 -6.34144,3.94322 -5.22039,3.67849 -5.18601,4.50043 0.25293,6.04678 7.92539,2.25326 24.52013,3.45264 50.00543,3.61413 l 12.47592,0.0791 z"
       id="path22391"
       inkscape:connector-curvature="0"
       transform="scale(0.26458333)" />
    <path
       style="opacity:1;fill:#000000;fill-opacity:1;fill-rule:nonzero;stroke:#000000;stroke-width:0.42599997;stroke-linecap:square;stroke-linejoin:round;stroke-miterlimit:4;stroke-dasharray:none;stroke-opacity:1;paint-order:normal"
       id="path22413"
       d="m 49.166155,147.79521 c 1.340596,-0.48807 2.701798,-0.90834 4.075567,-1.29336 3.501342,-0.94654 7.083756,-1.54525 10.65816,-2.13742 6.215801,-0.99378 12.457449,-1.80824 18.709256,-2.53681 7.758647,-0.96924 15.580021,-1.11093 23.387572,-1.21189 9.79744,-0.0956 19.59428,0.0572 29.39082,0.16703 8.15567,0.0719 16.31187,0.0549 24.46702,-0.0587 2.6281,-0.0395 5.25505,-0.12579 7.88105,-0.23503 0,0 -4.76884,3.46427 -4.76884,3.46427 v 0 c -2.3984,-0.11633 -4.79788,-0.20917 -7.19861,-0.26252 -7.93456,-0.17412 -15.87022,-0.29261 -23.80554,-0.42616 -9.86125,-0.13237 -19.72472,-0.28411 -29.58535,-0.008 -7.904073,0.20497 -15.816511,0.48857 -23.669043,1.47751 -6.378652,0.78931 -12.744524,1.68406 -19.068052,2.84237 -3.719664,0.71329 -7.44787,1.43667 -11.076438,2.53758 -1.493236,0.47677 -2.959544,1.02005 -4.431252,1.55725 0,0 5.03368,-3.87569 5.03368,-3.87569 z"
       inkscape:connector-curvature="0" />
  </g>
</svg>
